<svg width="24" height="27" viewBox="0 0 24 27" fill="none" xmlns="http://www.w3.org/2000/svg">
<path d="M7.44892 22.6823C5.96688 21.4785 5.53452 18.9518 6.15183 17.1203C7.22149 18.2745 8.70478 18.6413 10.2405 18.8471C12.6111 19.1655 14.9391 19.0463 17.1409 18.0844C17.3933 17.9741 17.6257 17.8268 17.9007 17.6794C18.1081 18.2115 18.1618 18.7481 18.0893 19.296C17.9144 20.6291 17.1671 21.6585 15.98 22.4392C15.5052 22.7509 15.0028 23.0299 14.5117 23.3246C13.0059 24.2291 12.5986 25.29 13.1646 26.8335L13.2196 27C12.4991 26.7216 11.887 26.2564 11.4614 25.6635C11.0187 25.0571 10.7824 24.3473 10.7816 23.6216C10.7766 23.2616 10.7766 22.8994 10.7216 22.5439C10.5892 21.6787 10.1318 21.2918 9.27085 21.2693C8.38738 21.2468 7.6876 21.7316 7.50265 22.4955C7.48766 22.5551 7.46767 22.6125 7.44642 22.6811H7.44892V22.6823ZM0 17.6816C0 17.6816 4.04873 15.9098 8.10997 15.9098L11.1728 7.39913C11.2877 6.98738 11.6226 6.70837 12 6.70837C12.3774 6.70837 12.7123 6.98738 12.8272 7.39913L15.8888 15.9098C20.6998 15.9098 24 17.6816 24 17.6816L17.1084 0.817875C16.911 0.320625 16.5773 0 16.1275 0H7.87254C7.42268 0 7.10403 0.320625 6.89285 0.817875L0 17.6816Z" fill="#9F9F9F"/>
</svg>
