<svg width="24" height="20" viewBox="0 0 24 20" fill="none" xmlns="http://www.w3.org/2000/svg">
<path d="M23.772 7.55928C23.7 7.50349 23.1 6.95955 21.804 6.95955C21.468 6.95955 21.132 7.00139 20.796 7.07113C20.544 5.11855 19.14 4.12831 19.08 4.08647L18.732 3.84937L18.516 4.22594C18.228 4.72803 18 5.29986 17.904 5.88564C17.664 7.0014 17.808 8.06137 18.3 8.96792C17.712 9.35844 16.752 9.45607 16.548 9.45607H0.744C0.336 9.45607 0 9.84658 0 10.3347C0 11.9386 0.216 13.5425 0.696 15.0488C1.236 16.7085 2.052 17.9358 3.096 18.689C4.272 19.5258 6.204 20 8.4 20C9.348 20 10.332 19.9024 11.304 19.6932C12.648 19.4142 13.944 18.8703 15.132 18.0753C16.1159 17.4214 16.9965 16.5771 17.736 15.5788C18.996 13.947 19.74 12.0921 20.28 10.4881H20.508C21.876 10.4881 22.728 9.84658 23.196 9.30265C23.508 8.96792 23.736 8.56346 23.904 8.08926L24 7.75453L23.772 7.55928ZM2.22 8.94003H4.332C4.428 8.94003 4.524 8.8424 4.524 8.71688V6.51325C4.524 6.40167 4.44 6.2901 4.332 6.2901H2.22C2.112 6.2901 2.028 6.38773 2.028 6.51325V8.71688C2.04 8.8424 2.112 8.94003 2.22 8.94003ZM5.136 8.94003H7.248C7.344 8.94003 7.44 8.8424 7.44 8.71688V6.51325C7.44 6.40167 7.356 6.2901 7.248 6.2901H5.136C5.028 6.2901 4.944 6.38773 4.944 6.51325V8.71688C4.956 8.8424 5.028 8.94003 5.136 8.94003ZM8.1 8.94003H10.2C10.32 8.94003 10.404 8.8424 10.404 8.71688V6.51325C10.404 6.40167 10.332 6.2901 10.2 6.2901H8.1C8.004 6.2901 7.92 6.38773 7.92 6.51325V8.71688C7.92 8.8424 7.992 8.94003 8.1 8.94003ZM11.028 8.94003H13.152C13.248 8.94003 13.332 8.8424 13.332 8.71688V6.51325C13.332 6.40167 13.26 6.2901 13.152 6.2901H11.028C10.932 6.2901 10.848 6.38773 10.848 6.51325V8.71688C10.848 8.8424 10.932 8.94003 11.028 8.94003ZM5.136 5.8159H7.248C7.344 5.8159 7.44 5.69038 7.44 5.56485V3.37517C7.44 3.24965 7.356 3.15202 7.248 3.15202H5.136C5.028 3.15202 4.944 3.2357 4.944 3.37517V5.56485C4.956 5.69038 5.028 5.8159 5.136 5.8159ZM8.1 5.8159H10.2C10.32 5.8159 10.404 5.69038 10.404 5.56485V3.37517C10.404 3.24965 10.332 3.15202 10.2 3.15202H8.1C8.004 3.15202 7.92 3.2357 7.92 3.37517V5.56485C7.92 5.69038 7.992 5.8159 8.1 5.8159ZM11.028 5.8159H13.152C13.248 5.8159 13.332 5.69038 13.332 5.56485V3.37517C13.332 3.24965 13.248 3.15202 13.152 3.15202H11.028C10.932 3.15202 10.848 3.2357 10.848 3.37517V5.56485C10.848 5.69038 10.932 5.8159 11.028 5.8159ZM11.028 2.63598H13.152C13.248 2.63598 13.332 2.53835 13.332 2.41283V0.237099C13.332 0.0976291 13.248 0 13.152 0H11.028C10.932 0 10.848 0.0836821 10.848 0.237099V2.41283C10.848 2.52441 10.932 2.63598 11.028 2.63598ZM13.98 8.94003H16.092C16.2 8.94003 16.284 8.8424 16.284 8.71688V6.51325C16.284 6.40167 16.2 6.2901 16.092 6.2901H13.98C13.884 6.2901 13.8 6.38773 13.8 6.51325V8.71688C13.8 8.8424 13.884 8.94003 13.98 8.94003Z" fill="#9F9F9F"/>
</svg>
