<svg width="24" height="25" viewBox="0 0 24 25" fill="none" xmlns="http://www.w3.org/2000/svg">
<path d="M23.2345 19.1884C23.0889 18.9411 22.9432 18.6938 22.9432 18.4465C22.9432 17.9519 22.6518 17.5809 22.2148 17.21C22.0692 17.0863 21.7778 16.9627 21.6321 16.9627C22.5062 14.7369 21.1951 12.5112 19.7384 10.9037C18.573 9.41991 16.825 8.30705 16.9707 6.32862C16.9707 3.97924 17.262 -0.348561 12.1635 0.0223934C6.91937 0.269696 8.37608 4.8448 8.23041 6.45227C8.23041 7.81244 7.50206 9.17261 6.33669 10.2855C6.04535 10.5328 5.754 10.9037 5.60833 11.151C4.15162 12.6348 3.42327 14.6133 3.42327 16.468C3.13193 16.7153 2.84058 16.9627 2.69491 17.21C2.54924 17.3336 2.40357 17.4573 2.40357 17.5809C2.2579 17.7046 1.96656 17.8282 1.67522 17.9519C1.09253 18.0755 0.655519 18.3228 0.364177 18.8174C0.218506 19.1884 0.0728355 19.683 0.218506 20.1776C0.364177 20.4249 0.364177 20.6722 0.218506 21.0432C-0.0728355 21.5378 -0.0728355 22.156 0.218506 22.7743C0.655519 23.2689 1.38387 23.3925 2.40357 23.5162C3.13193 23.5162 4.00595 23.7635 4.73431 24.0108C5.46266 24.3817 6.33669 24.629 7.21071 24.629C7.64773 24.629 8.23041 24.5054 8.66742 24.3817C9.10444 24.1344 9.39578 23.8871 9.54145 23.5162C10.1241 23.5162 10.9982 23.2689 12.0179 23.2689C12.8919 23.2689 13.7659 23.5162 14.9313 23.3925C14.9313 23.5162 14.9313 23.6398 15.0769 23.7635C15.3683 24.3817 16.0966 24.8763 16.9707 25H17.262C18.4274 24.8763 19.5927 24.3817 20.3211 23.6398C20.9038 23.1452 21.6321 22.7743 22.3605 22.527C23.2345 22.156 23.8172 21.9087 23.9629 21.2905C24.1085 20.4249 23.8172 19.9303 23.2345 19.1884ZM13.1832 3.36098C14.0572 3.48464 14.7856 4.10289 14.6399 4.8448C14.6399 5.21576 14.4943 5.58671 14.2029 5.95767H14.0572C13.7659 5.83402 13.6202 5.83402 13.4746 5.71036C13.6202 5.58671 13.6202 5.33941 13.7659 5.09211C13.7659 4.5975 13.4746 4.22655 13.1832 4.22655C12.7462 4.22655 12.4549 4.5975 12.4549 5.09211V5.21576C12.3092 5.09211 12.0179 5.09211 11.8722 4.96845V4.8448C11.7265 4.22655 12.3092 3.48464 13.1832 3.36098ZM12.7462 5.83402C12.8919 5.95767 13.1832 6.08132 13.3289 6.08132C13.4746 6.08132 13.7659 6.20497 13.9116 6.32862C14.2029 6.45227 14.4943 6.57592 14.4943 6.94688C14.4943 7.31783 14.0572 7.68879 13.1832 7.93609C12.8919 8.05974 12.7462 8.05974 12.6005 8.18339C12.1635 8.4307 11.7265 8.55435 11.1438 8.55435C10.7068 8.55435 10.2698 8.30705 9.97846 8.05974C9.83279 7.93609 9.68712 7.81244 9.39578 7.68879C9.25011 7.56514 8.95877 7.31783 8.81309 6.94688C8.81309 6.82323 8.95876 6.69958 9.10444 6.57592C9.54145 6.32862 9.68712 6.20497 9.83279 6.08132L9.97846 5.95767C10.2698 5.58671 10.8525 5.33941 11.4352 5.33941C11.8722 5.46306 12.3092 5.58671 12.7462 5.83402ZM9.68712 3.60829C10.2698 3.60829 10.7068 4.10289 10.8525 4.96845V5.21576C10.7068 5.21576 10.4155 5.33941 10.2698 5.46306V5.21576C10.2698 4.8448 9.97846 4.47385 9.68712 4.5975C9.39578 4.5975 9.25011 4.96845 9.25011 5.33941C9.25011 5.58671 9.39578 5.71036 9.54145 5.83402C9.54145 5.83402 9.39578 5.95767 9.25011 5.95767C8.95877 5.71036 8.66742 5.33941 8.66742 4.96845C8.66742 4.22655 9.10444 3.60829 9.68712 3.60829ZM8.23041 23.5162C7.21071 23.8871 5.89967 23.7635 5.02565 23.2689C4.15162 22.8979 3.42327 22.7743 2.40357 22.7743C1.67522 22.6506 0.946861 22.6506 0.80119 22.4033C0.655519 22.156 0.655519 21.7851 0.946861 21.1668C1.09253 20.7959 1.09253 20.4249 0.946861 20.0539C0.80119 19.683 0.80119 19.4357 0.946861 19.0647C1.09253 18.6938 1.38387 18.5701 1.82089 18.4465C2.2579 18.3228 2.54924 18.1992 2.84058 17.9519C2.98625 17.8282 3.13193 17.7046 3.2776 17.4573C3.71461 16.9627 4.00595 16.7153 4.44296 16.7153C5.31699 16.839 6.04535 17.9519 6.62803 19.0647C6.91937 19.4357 7.21071 19.9303 7.64773 20.3012C8.23041 20.9195 8.95876 21.7851 8.95876 22.2797C8.95876 22.8979 8.66742 23.2689 8.23041 23.5162ZM15.3683 20.7958C15.3683 20.9195 15.3683 20.9195 15.2226 21.0432C13.4746 22.156 11.1438 22.2797 9.25011 21.4141L8.37608 20.3012C9.68712 20.1776 9.39578 18.6938 6.62803 17.21C3.71461 15.6025 5.754 12.6348 6.7737 11.2747C6.91937 11.151 6.91937 11.2747 6.33669 12.2639C5.89967 13.0058 5.02565 14.8606 6.19102 16.2207C6.19102 15.2315 6.48236 14.2423 6.91937 13.2531C7.93907 11.6456 8.66742 9.79086 9.10444 7.93609C9.25011 8.05974 9.25011 8.05974 9.39578 8.05974C9.54145 8.1834 9.68712 8.30705 9.83279 8.30705C10.1241 8.678 10.7068 8.80165 11.1438 8.80165H11.2895C11.8722 8.80165 12.4549 8.678 12.8919 8.30705C13.0376 8.18339 13.1832 8.05974 13.4746 8.05974C13.9116 7.93609 14.3486 7.68879 14.7856 7.31783C15.3683 8.9253 15.951 10.4091 16.825 11.7693C17.4077 12.7585 17.8447 13.7477 18.136 14.8606C18.5731 14.8606 19.1557 14.9842 19.5927 15.2315C20.7581 15.7261 21.1951 16.0971 21.0495 16.7153H20.7581C20.7581 16.3444 20.4668 15.9734 19.4471 15.6025C18.4274 15.2315 17.5534 15.2315 17.262 16.0971C17.1163 16.0971 16.9707 16.2207 16.825 16.2207C15.6596 16.7153 15.6596 18.0755 15.514 19.4357C15.6596 19.9303 15.514 20.3012 15.3683 20.7958ZM22.0692 21.5378C21.1951 21.7851 20.4668 22.2797 19.8841 22.8979C19.3014 23.6398 18.2817 24.1344 17.1163 24.0108C16.5337 24.0108 15.951 23.6398 15.8053 23.1452C15.6596 22.4033 15.6596 21.6614 16.0966 20.9195C16.2423 20.4249 16.388 20.0539 16.5337 19.5593C16.6793 18.0755 16.6793 17.21 17.4077 16.839C17.4077 17.4573 17.8447 17.8282 18.4274 18.0755C19.1557 18.0755 19.8841 17.9519 20.4668 17.4573H20.7581C21.1951 17.4573 21.4865 17.4573 21.7778 17.7046C22.0692 17.9519 22.2148 18.3228 22.2148 18.5701C22.2148 18.9411 22.5062 19.312 22.6518 19.683C23.3802 20.3012 23.3802 20.6722 23.3802 20.7958C23.2345 21.0432 22.6518 21.2905 22.0692 21.5378ZM8.95876 6.69958C8.81309 6.69958 8.81309 6.69958 8.81309 6.82323C8.81309 6.82323 8.81309 6.94688 8.95876 6.94688C9.10444 6.94688 9.10444 7.07053 9.10444 7.07053C9.54145 7.56514 10.2698 7.81244 11.1438 7.93609C11.8722 7.81244 12.6005 7.68879 13.3289 7.19418L14.2029 6.82323C14.3486 6.82323 14.3486 6.69958 14.3486 6.69958C14.3486 6.57592 14.3486 6.57592 14.2029 6.57592C13.9116 6.69958 13.4746 6.82323 13.1832 6.94688C12.6005 7.31783 11.8722 7.56514 11.1438 7.56514C10.4155 7.56514 9.83279 7.19418 9.39578 6.82323C9.25011 6.82323 9.10444 6.69958 8.95876 6.69958Z" fill="#9F9F9F"/>
</svg>
