<svg width="24" height="18" viewBox="0 0 24 18" fill="none" xmlns="http://www.w3.org/2000/svg">
<path d="M5.6625 4.6875H10.1812V5.13281H6.075V8.50781H9.9375V8.95312H6.075V12.6563H10.2375V13.1016H5.6625V4.6875ZM10.5938 4.6875H11.0812L13.2188 8.39063L15.375 4.6875L18.3375 0L13.4625 8.78906L15.975 13.1016H15.4688L13.2 9.16406L10.9125 13.1016H10.425L12.9562 8.78906L10.5938 4.6875ZM16.1625 5.13281V4.6875H21.3187V5.13281H18.9375V13.1016H18.525V5.13281H16.1625ZM0 4.6875H0.50625L7.66875 18L4.70625 13.1016L0.43125 5.32031L0.4125 13.1016H0V4.6875ZM21.2812 12.5156C21.375 12.5156 21.4313 12.4453 21.4313 12.3281C21.4313 12.2109 21.375 12.1406 21.2812 12.1406C21.1875 12.1406 21.1312 12.2109 21.1312 12.3281C21.1312 12.4453 21.2062 12.5156 21.2812 12.5156ZM21.6937 12.0234C21.6937 12.3281 21.8812 12.5391 22.1437 12.5391C22.425 12.5391 22.5938 12.3281 22.5938 11.9531V10.6641H22.3688V11.9531C22.3688 12.1641 22.2937 12.2578 22.1437 12.2578C22.0125 12.2578 21.9188 12.1641 21.9188 12H21.6937V12.0234ZM22.875 12C22.8938 12.3281 23.1 12.5391 23.4375 12.5391C23.775 12.5391 24 12.3281 24 11.9766C24 11.6953 23.8688 11.5547 23.5875 11.4609L23.4188 11.4141C23.2313 11.3672 23.1562 11.2734 23.1562 11.1563C23.1562 10.9922 23.2687 10.875 23.4562 10.875C23.625 10.875 23.7375 10.9688 23.7562 11.1563H23.9813C23.9625 10.8516 23.7562 10.6406 23.4562 10.6406C23.1375 10.6406 22.9313 10.8516 22.9313 11.1797C22.9313 11.4375 23.0438 11.6016 23.3063 11.6719L23.4938 11.7188C23.6813 11.7656 23.775 11.8594 23.775 12C23.775 12.1641 23.6437 12.2813 23.4562 12.2813C23.2687 12.2813 23.1187 12.1641 23.1 12H22.875Z" fill="#9F9F9F"/>
</svg>
