<svg width="25" height="18" viewBox="0 0 25 18" fill="none" xmlns="http://www.w3.org/2000/svg">
<path d="M12.5 0C5.49062 0 0 3.95308 0 9C0 14.0469 5.49062 18 12.5 18C19.5094 18 25 14.0469 25 9C25 3.95308 19.5094 0 12.5 0ZM11.2021 2.76923H12.5667L12.1333 5.53846H13.3521C14.125 5.53846 14.6437 5.68246 14.9396 6.04108C15.2281 6.39554 15.3156 6.97708 15.2 7.76908L14.6583 11.0769H13.2708L13.7698 8.01831C13.8302 7.59877 13.8062 7.30662 13.7 7.15292C13.5948 6.99923 13.3625 6.92308 13.0146 6.92308H11.9219L11.2625 11.0769H9.89583L11.2021 2.76923ZM5.20833 5.53846H7.98542C9.30937 5.53846 10.1115 6.71815 9.79792 8.478C9.43333 10.5231 8.45833 11.0769 6.6625 11.0769H5.80417L5.53229 13.1538H4.15208L5.20833 5.53846ZM16.1458 5.53846H18.9229C20.2469 5.53846 21.049 6.71815 20.7354 8.478C20.3708 10.5231 19.3948 11.0769 17.6 11.0769H16.7417L16.4698 13.1538H15.0896L16.1458 5.53846ZM6.39062 6.92308L5.99792 9.69231H6.88854C7.65937 9.69231 8.37604 9.576 8.49583 8.04739C8.54062 7.45615 8.35521 6.92308 7.46458 6.92308H6.39062ZM17.3281 6.92308L16.9354 9.69231H17.826C18.5969 9.69231 19.3135 9.576 19.4333 8.04739C19.4781 7.45615 19.2937 6.92308 18.4021 6.92308H17.3281Z" fill="#9F9F9F"/>
</svg>
