<svg width="24" height="24" viewBox="0 0 24 24" fill="none" xmlns="http://www.w3.org/2000/svg">
<path fill-rule="evenodd" clip-rule="evenodd" d="M0 0H24V24H0V0ZM16 9.6C15.1513 9.6 14.3374 9.93714 13.7373 10.5373C13.1371 11.1374 12.8 11.9513 12.8 12.8C12.8 13.6487 13.1371 14.4626 13.7373 15.0627C14.3374 15.6629 15.1513 16 16 16H17.6C18.0243 16 18.4313 16.1686 18.7314 16.4686C19.0314 16.7687 19.2 17.1757 19.2 17.6C19.2 18.0243 19.0314 18.4313 18.7314 18.7314C18.4313 19.0314 18.0243 19.2 17.6 19.2H16C15.5757 19.2 15.1687 19.0314 14.8686 18.7314C14.5686 18.4313 14.4 18.0243 14.4 17.6H12.8C12.8 18.4487 13.1371 19.2626 13.7373 19.8627C14.3374 20.4629 15.1513 20.8 16 20.8H17.6C18.4487 20.8 19.2626 20.4629 19.8627 19.8627C20.4629 19.2626 20.8 18.4487 20.8 17.6C20.8 16.7513 20.4629 15.9374 19.8627 15.3373C19.2626 14.7371 18.4487 14.4 17.6 14.4H16C15.5757 14.4 15.1687 14.2314 14.8686 13.9314C14.5686 13.6313 14.4 13.2243 14.4 12.8C14.4 12.3757 14.5686 11.9687 14.8686 11.6686C15.1687 11.3686 15.5757 11.2 16 11.2H17.8672C18.6032 11.2 19.2 11.7968 19.2 12.5328V12.8H20.8V12.5328C20.8 10.9136 19.488 9.6 17.8672 9.6H16ZM4.8 9.6H12.8V11.2H9.6V20.8H8V11.2H4.8V9.6Z" fill="#9F9F9F"/>
</svg>
